<svg width="14" height="14" viewBox="0 0 14 14" fill="none" xmlns="http://www.w3.org/2000/svg">
<circle cx="7" cy="7" r="7" fill="#949494"/>
<path d="M6.37109 8.19922L6.24805 2.53906H7.67773L7.56055 8.19922H6.37109ZM6.96875 11.1289C6.69531 11.1289 6.47461 11.0488 6.30664 10.8887C6.14258 10.7285 6.06055 10.5176 6.06055 10.2559C6.06055 9.99023 6.14258 9.77734 6.30664 9.61719C6.47461 9.45312 6.69531 9.37109 6.96875 9.37109C7.23828 9.37109 7.45508 9.45312 7.61914 9.61719C7.78711 9.77734 7.87109 9.99023 7.87109 10.2559C7.87109 10.5176 7.78711 10.7285 7.61914 10.8887C7.45508 11.0488 7.23828 11.1289 6.96875 11.1289Z" fill="white"/>
</svg>
